<svg width="20" height="20" viewBox="0 0 20 20" fill="none" xmlns="http://www.w3.org/2000/svg">
<mask id="path-1-outside-1_179_41" maskUnits="userSpaceOnUse" x="0" y="0" width="20" height="20" fill="black">
<rect fill="white" width="20" height="20"/>
<path fill-rule="evenodd" clip-rule="evenodd" d="M2.49771 6.7763C2.31217 8.1027 2.23013 9.43886 2.25164 10.7848C3.19945 15.2424 5.78317 17.6475 10.0028 18C15.0338 17.5693 17.6996 14.6297 18.0001 9.18138C17.2142 3.82952 14.3434 1.46899 9.38764 2.09976C8.48767 2.32346 7.74946 2.81337 7.17302 3.56953C5.25787 6.6829 5.58595 9.48883 8.1573 11.9873C10.4679 12.9883 12.2724 12.3648 13.5708 10.1167C13.4336 9.56673 13.1055 9.25495 12.5865 9.18138C11.6855 9.81891 10.7012 10.0416 9.63371 9.84946C7.69496 8.16745 7.96163 6.20833 9.90038 4.5054C12.2787 3.6981 14.1242 4.98857 15.4369 7.3102C16.507 13.4004 14.4 16.6362 8.69063 15.7274C5.01608 13.7617 3.29342 10.1552 4.5893 5.97461C5.26606 5.02078 5.96325 4.13002 6.68088 3.3023C6.24081 3.00233 5.74868 2.95781 5.20447 3.16868C3.88615 4.01962 2.98392 5.22216 2.49771 6.7763ZM2.25162 10.7848C2.23012 9.43885 2.31216 8.10269 2.49769 6.77629C2.13085 7.49418 1.9668 8.29587 2.00555 9.18137C2.00669 9.76834 2.08873 10.3028 2.25162 10.7848Z"/>
</mask>
<path fill-rule="evenodd" clip-rule="evenodd" d="M2.49771 6.7763C2.31217 8.1027 2.23013 9.43886 2.25164 10.7848C3.19945 15.2424 5.78317 17.6475 10.0028 18C15.0338 17.5693 17.6996 14.6297 18.0001 9.18138C17.2142 3.82952 14.3434 1.46899 9.38764 2.09976C8.48767 2.32346 7.74946 2.81337 7.17302 3.56953C5.25787 6.6829 5.58595 9.48883 8.1573 11.9873C10.4679 12.9883 12.2724 12.3648 13.5708 10.1167C13.4336 9.56673 13.1055 9.25495 12.5865 9.18138C11.6855 9.81891 10.7012 10.0416 9.63371 9.84946C7.69496 8.16745 7.96163 6.20833 9.90038 4.5054C12.2787 3.6981 14.1242 4.98857 15.4369 7.3102C16.507 13.4004 14.4 16.6362 8.69063 15.7274C5.01608 13.7617 3.29342 10.1552 4.5893 5.97461C5.26606 5.02078 5.96325 4.13002 6.68088 3.3023C6.24081 3.00233 5.74868 2.95781 5.20447 3.16868C3.88615 4.01962 2.98392 5.22216 2.49771 6.7763ZM2.25162 10.7848C2.23012 9.43885 2.31216 8.10269 2.49769 6.77629C2.13085 7.49418 1.9668 8.29587 2.00555 9.18137C2.00669 9.76834 2.08873 10.3028 2.25162 10.7848Z" fill="black"/>
<path d="M2.25164 10.7848L0.751833 10.8087L0.754159 10.9543L0.78444 11.0967L2.25164 10.7848ZM2.49771 6.7763L1.06613 6.32843L1.02927 6.44625L1.01217 6.5685L2.49771 6.7763ZM10.0028 18L9.87795 19.4948L10.0044 19.5054L10.1308 19.4945L10.0028 18ZM18.0001 9.18138L19.4978 9.26397L19.5061 9.11303L19.4841 8.96347L18.0001 9.18138ZM9.38764 2.09976L9.19825 0.611762L9.11109 0.622856L9.02581 0.644053L9.38764 2.09976ZM7.17302 3.56953L5.98012 2.66014L5.93467 2.71976L5.89539 2.78361L7.17302 3.56953ZM8.1573 11.9873L7.11199 13.0631L7.30898 13.2545L7.56101 13.3637L8.1573 11.9873ZM13.5708 10.1167L14.8697 10.8669L15.173 10.3418L15.0262 9.75346L13.5708 10.1167ZM12.5865 9.18138L12.7971 7.69623L12.2068 7.61255L11.7202 7.95687L12.5865 9.18138ZM9.63371 9.84946L8.65073 10.9825L8.96218 11.2527L9.36799 11.3257L9.63371 9.84946ZM9.90038 4.5054L9.41823 3.085L9.13511 3.18111L8.91048 3.37842L9.90038 4.5054ZM15.4369 7.3102L16.9143 7.05062L16.8696 6.79649L16.7426 6.57189L15.4369 7.3102ZM8.69063 15.7274L7.98307 17.05L8.20561 17.1691L8.45485 17.2088L8.69063 15.7274ZM4.5893 5.97461L3.36595 5.10661L3.22743 5.30184L3.15655 5.53049L4.5893 5.97461ZM6.68088 3.3023L7.81423 4.28491L8.91797 3.01185L7.52573 2.06285L6.68088 3.3023ZM5.20447 3.16868L4.66251 1.77001L4.51968 1.82535L4.391 1.90842L5.20447 3.16868ZM2.49769 6.77629L3.98323 6.98409L1.16198 6.09374L2.49769 6.77629ZM2.25162 10.7848L0.830599 11.2651L3.75143 10.7608L2.25162 10.7848ZM2.00555 9.18137L3.50555 9.17848L3.50549 9.14711L3.50412 9.11578L2.00555 9.18137ZM3.75145 10.7608C3.73118 9.49202 3.8085 8.23336 3.98325 6.9841L1.01217 6.5685C0.815847 7.97204 0.729094 9.38569 0.751833 10.8087L3.75145 10.7608ZM10.1277 16.5052C8.28376 16.3512 6.92165 15.7641 5.92231 14.8339C4.91371 13.895 4.14723 12.4876 3.71884 10.4728L0.78444 11.0967C1.30386 13.5396 2.30315 15.5636 3.87827 17.0298C5.46266 18.5046 7.50223 19.2963 9.87795 19.4948L10.1277 16.5052ZM16.5023 9.09879C16.364 11.6072 15.6926 13.3307 14.6643 14.4647C13.6497 15.5834 12.1197 16.3133 9.87486 16.5055L10.1308 19.4945C12.9169 19.256 15.2353 18.3008 16.8865 16.48C18.524 14.6743 19.3357 12.2039 19.4978 9.26397L16.5023 9.09879ZM9.57704 3.58775C11.7918 3.30586 13.2872 3.71886 14.3049 4.5557C15.3452 5.41106 16.1529 6.92654 16.516 9.39929L19.4841 8.96347C19.0614 6.08436 18.0408 3.74364 16.2103 2.23846C14.3572 0.71476 11.9393 0.26288 9.19825 0.611762L9.57704 3.58775ZM8.36592 4.47891C8.7412 3.98664 9.18955 3.69464 9.74948 3.55546L9.02581 0.644053C7.78579 0.952275 6.75773 1.6401 5.98012 2.66014L8.36592 4.47891ZM9.2026 10.9115C8.09644 9.8367 7.58677 8.81147 7.47257 7.8348C7.35789 6.85402 7.61728 5.71022 8.45065 4.35545L5.89539 2.78361C4.81361 4.54221 4.27946 6.35806 4.49287 8.18321C4.70676 10.0125 5.6468 11.6394 7.11199 13.0631L9.2026 10.9115ZM12.2719 9.36649C11.738 10.2909 11.2089 10.6954 10.7538 10.8527C10.3068 11.0071 9.67709 11.011 8.75358 10.6109L7.56101 13.3637C8.94814 13.9646 10.376 14.1573 11.7336 13.6882C13.0829 13.2219 14.1053 12.1905 14.8697 10.8669L12.2719 9.36649ZM12.376 10.6665C12.3815 10.6673 12.3587 10.6647 12.3188 10.6466C12.2771 10.6276 12.2309 10.598 12.1885 10.5577C12.0995 10.4731 12.0985 10.412 12.1155 10.4799L15.0262 9.75346C14.9059 9.27146 14.6722 8.77943 14.2551 8.38303C13.8305 7.97958 13.315 7.76966 12.7971 7.69623L12.376 10.6665ZM9.36799 11.3257C10.8391 11.5905 12.23 11.2711 13.4529 10.4059L11.7202 7.95687C11.1409 8.36671 10.5633 8.49266 9.89943 8.37318L9.36799 11.3257ZM8.91048 3.37842C7.77852 4.37269 6.92303 5.62366 6.81696 7.07602C6.7065 8.58866 7.43347 9.92642 8.65073 10.9825L10.6167 8.71643C9.8952 8.09048 9.78613 7.60768 9.809 7.29453C9.83627 6.9211 10.0835 6.34104 10.8903 5.63239L8.91048 3.37842ZM16.7426 6.57189C16.0086 5.27369 15.0467 4.11668 13.7959 3.42277C12.49 2.6983 10.9933 2.55033 9.41823 3.085L10.3825 5.9258C11.1857 5.65317 11.801 5.74678 12.3406 6.04613C12.9353 6.37604 13.5525 7.02509 14.1312 8.04851L16.7426 6.57189ZM8.45485 17.2088C11.5713 17.7048 14.2153 17.1374 15.8005 15.0508C17.2957 13.0828 17.4704 10.2158 16.9143 7.05062L13.9596 7.56977C14.4735 10.4948 14.1298 12.2908 13.4117 13.236C12.7836 14.0627 11.5193 14.6588 8.92641 14.2461L8.45485 17.2088ZM3.15655 5.53049C2.41308 7.92899 2.5152 10.249 3.40104 12.281C4.28323 14.3046 5.89407 15.9325 7.98307 17.05L9.39819 14.4048C7.81264 13.5566 6.72488 12.3983 6.15107 11.0821C5.58091 9.77427 5.46965 8.20079 6.02204 6.41872L3.15655 5.53049ZM5.54754 2.31968C4.79601 3.1865 4.06897 4.11578 3.36595 5.10661L5.81265 6.8426C6.46316 5.92578 7.13049 5.07354 7.81423 4.28491L5.54754 2.31968ZM5.74643 4.56735C5.79504 4.54852 5.82591 4.54181 5.84058 4.53946C5.85447 4.53723 5.85532 4.53861 5.84654 4.53782C5.83732 4.53699 5.82776 4.53467 5.82112 4.53222C5.81502 4.52996 5.81988 4.53073 5.83603 4.54174L7.52573 2.06285C6.63386 1.45492 5.61516 1.40087 4.66251 1.77001L5.74643 4.56735ZM3.92929 7.22417C4.31508 5.991 5.0062 5.082 6.01794 4.42894L4.391 1.90842C2.76611 2.95725 1.65275 4.45333 1.06613 6.32843L3.92929 7.22417ZM1.01216 6.56849C0.815829 7.97203 0.729076 9.38568 0.751815 10.8087L3.75143 10.7608C3.73116 9.49201 3.80848 8.23335 3.98323 6.98409L1.01216 6.56849ZM3.50412 9.11578C3.47555 8.46312 3.59613 7.92317 3.83341 7.45884L1.16198 6.09374C0.665572 7.06519 0.458043 8.12862 0.506989 9.24696L3.50412 9.11578ZM3.67265 10.3045C3.56903 9.99788 3.50642 9.62753 3.50555 9.17848L0.505557 9.18426C0.506955 9.90915 0.608425 10.6077 0.830599 11.2651L3.67265 10.3045Z" fill="white" mask="url(#path-1-outside-1_179_41)"/>
</svg>
