<svg width="20" height="20" fill="none" xmlns="http://www.w3.org/2000/svg"><mask id="path-1-outside-1_179_41" maskUnits="userSpaceOnUse" x="0" y="0" width="20" height="20" fill="#000"><path fill="#fff" d="M0 0h20v20H0z"/><path fill-rule="evenodd" clip-rule="evenodd" d="M2.498 6.776a25.904 25.904 0 0 0-.246 4.009c.947 4.457 3.531 6.863 7.75 7.215 5.032-.43 7.698-3.37 7.998-8.819C17.214 3.83 14.343 1.47 9.388 2.1c-.9.223-1.639.713-2.215 1.47-1.915 3.113-1.587 5.919.984 8.417 2.31 1.001 4.115.378 5.414-1.87-.137-.55-.466-.862-.985-.936-.9.638-1.885.86-2.952.668-1.939-1.682-1.672-3.64.266-5.344 2.379-.807 4.224.484 5.537 2.805 1.07 6.09-1.037 9.326-6.746 8.417-3.675-1.965-5.398-5.572-4.102-9.752a34.936 34.936 0 0 1 2.092-2.673c-.44-.3-.932-.344-1.477-.133-1.318.85-2.22 2.053-2.706 3.607Zm-.246 4.009c-.022-1.346.06-2.682.246-4.009-.367.718-.531 1.52-.492 2.405 0 .587.083 1.122.246 1.604Z"/></mask><path fill-rule="evenodd" clip-rule="evenodd" d="M2.498 6.776a25.904 25.904 0 0 0-.246 4.009c.947 4.457 3.531 6.863 7.75 7.215 5.032-.43 7.698-3.37 7.998-8.819C17.214 3.83 14.343 1.47 9.388 2.1c-.9.223-1.639.713-2.215 1.47-1.915 3.113-1.587 5.919.984 8.417 2.31 1.001 4.115.378 5.414-1.87-.137-.55-.466-.862-.985-.936-.9.638-1.885.86-2.952.668-1.939-1.682-1.672-3.64.266-5.344 2.379-.807 4.224.484 5.537 2.805 1.07 6.09-1.037 9.326-6.746 8.417-3.675-1.965-5.398-5.572-4.102-9.752a34.936 34.936 0 0 1 2.092-2.673c-.44-.3-.932-.344-1.477-.133-1.318.85-2.22 2.053-2.706 3.607Zm-.246 4.009c-.022-1.346.06-2.682.246-4.009-.367.718-.531 1.52-.492 2.405 0 .587.083 1.122.246 1.604Z" fill="#000"/><path d="m2.252 10.785-1.5.024.002.145.03.143 1.468-.312Zm.246-4.009-1.432-.448-.037.118-.017.123 1.486.207ZM10.003 18l-.125 1.495.126.01.127-.01L10.003 18ZM18 9.181l1.498.083.008-.151-.022-.15L18 9.181ZM9.388 2.1 9.198.612l-.087.01-.085.022.362 1.456ZM7.173 3.57 5.98 2.66l-.045.06-.04.064 1.278.786Zm.984 8.417-1.045 1.076.197.191.252.11.596-1.377Zm5.414-1.87 1.299.75.303-.525-.147-.589-1.455.364Zm-.985-.936.211-1.485-.59-.083-.487.344.866 1.224Zm-2.952.668-.983 1.133.311.27.406.074.266-1.477ZM9.9 4.505l-.482-1.42-.283.096-.225.197.99 1.127Zm5.537 2.805 1.477-.26-.044-.254-.127-.224-1.306.738ZM8.69 15.727l-.708 1.323.223.12.249.039.236-1.482ZM4.589 5.975l-1.223-.868-.139.195-.07.228 1.432.445Zm2.092-2.673 1.133.983 1.104-1.273-1.392-.95-.845 1.24ZM5.204 3.17 4.663 1.77l-.143.055-.129.083.813 1.26ZM2.498 6.776l1.485.208-2.821-.89 1.336.682Zm-.246 4.009-1.421.48 2.92-.504-1.5.024ZM2.006 9.18l1.5-.003v-.03l-.002-.032-1.498.065Zm1.745 1.58c-.02-1.269.058-2.528.232-3.777l-2.97-.415a27.405 27.405 0 0 0-.261 4.24l3-.048Zm6.377 5.744c-1.844-.154-3.206-.74-4.206-1.671-1.008-.939-1.775-2.346-2.203-4.361l-2.935.624c.52 2.443 1.52 4.467 3.094 5.933 1.585 1.475 3.624 2.266 6 2.465l.25-2.99ZM16.502 9.1c-.138 2.508-.81 4.232-1.838 5.366-1.014 1.118-2.544 1.848-4.79 2.04l.257 2.99c2.786-.239 5.104-1.194 6.756-3.015 1.637-1.806 2.449-4.276 2.61-7.216l-2.995-.165ZM9.577 3.588c2.215-.282 3.71.13 4.728.968 1.04.855 1.848 2.37 2.211 4.843l2.968-.436c-.423-2.879-1.443-5.22-3.274-6.725C14.357.715 11.94.263 9.198.612l.379 2.976Zm-1.211.89c.375-.491.824-.783 1.383-.923L9.026.645A5.398 5.398 0 0 0 5.98 2.66L8.366 4.48Zm.837 6.434c-1.107-1.075-1.616-2.1-1.73-3.077-.115-.981.144-2.125.978-3.48L5.895 2.784c-1.081 1.758-1.616 3.574-1.402 5.4.214 1.829 1.154 3.455 2.619 4.88l2.09-2.152Zm3.069-1.546c-.534.925-1.063 1.33-1.518 1.487-.447.154-1.077.158-2-.242L7.56 13.364c1.387.6 2.815.793 4.173.324 1.349-.466 2.371-1.498 3.136-2.821l-2.598-1.5Zm.104 1.3c.006.001-.017-.001-.057-.02a.484.484 0 0 1-.13-.088c-.09-.085-.09-.146-.073-.078l2.91-.727a2.795 2.795 0 0 0-.77-1.37 2.621 2.621 0 0 0-1.459-.687l-.421 2.97Zm-3.008.66c1.471.264 2.862-.055 4.085-.92l-1.733-2.45c-.58.41-1.157.537-1.82.417l-.532 2.953ZM8.91 3.378c-1.131.995-1.987 2.246-2.093 3.698-.11 1.513.616 2.85 1.834 3.907l1.966-2.267c-.722-.626-.83-1.108-.808-1.421.027-.374.275-.954 1.081-1.663L8.91 3.378Zm7.833 3.194c-.734-1.298-1.696-2.455-2.947-3.15-1.306-.724-2.803-.872-4.378-.337l.965 2.84c.803-.272 1.418-.178 1.958.121.594.33 1.212.98 1.79 2.003l2.612-1.477ZM8.455 17.209c3.116.496 5.76-.072 7.345-2.158 1.496-1.968 1.67-4.835 1.114-8l-2.954.519c.513 2.925.17 4.72-.548 5.666-.628.827-1.893 1.423-4.486 1.01l-.471 2.963ZM3.157 5.53c-.744 2.399-.642 4.719.244 6.751.882 2.024 2.493 3.651 4.582 4.769l1.415-2.645c-1.585-.848-2.673-2.007-3.247-3.323-.57-1.308-.681-2.881-.129-4.663L3.157 5.53Zm2.39-3.21a36.437 36.437 0 0 0-2.181 2.787l2.447 1.736a33.44 33.44 0 0 1 2.001-2.558L5.548 2.32Zm.2 2.247a.48.48 0 0 1 .094-.028c.013-.002.014 0 .006-.001a.106.106 0 0 1-.026-.006c-.006-.002-.001-.001.015.01l1.69-2.48c-.892-.607-1.91-.661-2.863-.292l1.083 2.797ZM3.928 7.224c.386-1.233 1.077-2.142 2.089-2.795L4.39 1.909c-1.625 1.048-2.738 2.544-3.325 4.42l2.863.895Zm-2.917-.656a27.404 27.404 0 0 0-.26 4.24l3-.047c-.02-1.269.056-2.528.231-3.777l-2.97-.416Zm2.492 2.548c-.028-.653.092-1.193.33-1.657L1.161 6.094C.666 7.065.458 8.129.507 9.247l2.997-.131Zm.169 1.189a3.524 3.524 0 0 1-.167-1.127l-3 .006c.001.725.102 1.424.325 2.081l2.842-.96Z" fill="#fff" mask="url('#path-1-outside-1_179_41')"/></svg>